<svg version="1.1" id="Layer_1" xmlns="http://www.w3.org/2000/svg" xmlns:xlink="http://www.w3.org/1999/xlink" x="0px" y="0px"
	 viewBox="0 0 512 512" style="enable-background:new 0 0 512 512;" xml:space="preserve">
<style type="text/css">
	.st0{fill: white;}
</style>
<path class="st0" d="M263.5,509.3c-35.8,0-69.9-13.4-96-37.8L49.4,361.2c-3.6-3.4-5.7-8.2-5.7-13.1v-7.8c0-28.1,22.9-51,51-51
	c7.9,0,15.8,1.9,22.8,5.4l65.7,32.9c0.5,0.3,0.9,0.3,1.1,0.3c0.7,0,1.3-0.4,1.4-0.4c1.2-0.7,1.2-1.8,1.2-2.2V136.4
	c-14.8,4-20.2,4.5-23,4.5c-21.2,0-38.4-17.2-38.4-38.4s17.2-38.4,38.4-38.4c2.8,0,8.3,0.5,23,4.5V51.3c0-26.8,21.8-48.6,48.6-48.6
	c26.8,0,48.6,21.8,48.6,48.6v17.3c14.8-4,20.2-4.5,23-4.5c21.2,0,38.4,17.2,38.4,38.4s-17.2,38.4-38.4,38.4c-2.8,0-8.3-0.5-23-4.5
	v36.2c8.7-3.9,18.3-5.9,28.1-5.9c13.8,0,27,3.9,38.1,11.3l91.8,61.2c16.4,10.9,26.2,29.2,26.2,49v111.1c0,60.7-49.3,110-110,110
	H263.5z M191.9,445.2c19.5,18.2,44.9,28.2,71.6,28.2h94.9c40.9,0,74.2-33.3,74.2-74.2V288.1c0-7.7-3.8-14.9-10.3-19.2l-91.8-61.2
	c-5.3-3.5-11.6-5.4-18.2-5.4s-12.9,1.9-18.2,5.4l-17.9,12c-3,2-6.4,3-9.9,3c-2.9,0-5.9-0.7-8.4-2.1c-5.8-3.1-9.5-9.2-9.5-15.8v-79.2
	c-5.1-1.6-9.4-3.1-12.8-4.2c-3.4,1.1-7.7,2.6-12.8,4.2v199.6c0,13.4-6.8,25.6-18.2,32.6c-6.1,3.8-13.1,5.8-20.2,5.8
	c-5.9,0-11.8-1.4-17.2-4.1l-65.7-32.9c-2.1-1.1-4.5-1.6-6.8-1.6c-8.4,0-15.2,6.8-15.2,15.2v0L191.9,445.2z M163.8,99.9
	c-1.4,0-2.5,1.2-2.5,2.6s1.1,2.5,2.5,2.6c1.1-0.1,4.5-0.7,11.3-2.6C168.4,100.7,164.9,100,163.8,99.9z M295.9,102.5
	c6.8,1.8,10.2,2.5,11.3,2.6c1.4,0,2.5-1.2,2.5-2.6s-1.1-2.5-2.5-2.6C306.1,100,302.7,100.7,295.9,102.5z M222.7,79.4
	c5.1,1.6,9.4,3.1,12.8,4.2c3.4-1.1,7.7-2.6,12.8-4.2V51.3c0-7.1-5.7-12.8-12.8-12.8c-7.1,0-12.8,5.7-12.8,12.8V79.4z"/>
</svg>
