<svg version="1.1" id="Layer_1" xmlns="http://www.w3.org/2000/svg" xmlns:xlink="http://www.w3.org/1999/xlink" viewBox="0 0 60 60" style="enable-background:new 0 0 60 60;" xml:space="preserve">
<style type="text/css">
	.st0{fill: white;}
</style>
<path class="st0" d="M30,55.4c-1.3,0-2.4-1.1-2.4-2.4c0-0.7-1-1.4-1.4-1.4H5.5c-2.9,0-5.2-2.3-5.2-5.2V9.8c0-2.9,2.3-5.2,5.2-5.2
	h21.7c1,0,2,0.3,2.8,0.9c0.8-0.6,1.8-0.9,2.8-0.9h21.7c2.9,0,5.2,2.3,5.2,5.2v36.7c0,2.9-2.3,5.2-5.2,5.2H33.8
	c-0.4,0-1.4,0.7-1.4,1.4C32.4,54.4,31.3,55.4,30,55.4z M32.8,9.3c-0.3,0-0.5,0.2-0.5,0.5v37.4c0.5-0.1,1-0.2,1.4-0.2h20.7
	c0.3,0,0.5-0.2,0.5-0.5V9.8c0-0.3-0.2-0.5-0.5-0.5H32.8z M5.5,9.3C5.3,9.3,5,9.5,5,9.8v36.7C5,46.7,5.3,47,5.5,47h20.7
	c0.5,0,0.9,0.1,1.4,0.2V9.8c0-0.3-0.2-0.5-0.5-0.5H5.5z"/>
</svg>
